# xmcd
#
# Track frame offsets:
#	150
#	13860
#	26462
#	38680
#	53037
#	66412
#	77310
#	93575
#	104847
#	119702
#	132172
#	143730
#	162515
#
# Disc length: 2354 seconds
#
# Revision: 2437306029
# Processed by: cddbd v1.5.2PL0 Copyright (c) Steve Scherf et al.
# Submitted via: EZCDAudioConverter 8.3.2.1
#
DISCID=b209300d
DTITLE=Ringo Starr - Beaucoups Of Blues - The Acetate Version
DYEAR=1970
DGENRE=Country
TTITLE0=Woman Of The Night
TTITLE1=Without Her
TTITLE2=Beaucoups Of Blues
TTITLE3=Waiting
TTITLE4=Love Don't Last Long
TTITLE5=I'd Be Talking All The Time
TTITLE6=15-Dollar Draw
TTITLE7=Wine, Women And Loud Happy Songs
TTITLE8=The Wishing Book
TTITLE9=Fastest Growing Heartache In The West
TTITLE10=Loser's Lounge
TTITLE11=Silent Homecoming
TTITLE12=I Wouldn't Have You Any Other Way (with Jeannie Kendall)
EXTD=
EXTT0=
EXTT1=
EXTT2=
EXTT3=
EXTT4=
EXTT5=
EXTT6=
EXTT7=
EXTT8=
EXTT9=
EXTT10=
EXTT11=
EXTT12=
PLAYORDER=
